<?xml version="1.0" encoding="UTF-8"?><!DOCTYPE svg PUBLIC "-//W3C//DTD SVG 1.1//EN" "http://www.w3.org/Graphics/SVG/1.1/DTD/svg11.dtd"><svg xmlns="http://www.w3.org/2000/svg"><symbol id="icon-facebook" viewBox="-337 273 123.5 256"><path d="M-260.9 327.8c0-10.3 9.2-14 19.5-14s21.3 3.2 21.3 3.2l6.6-39.2s-14-4.8-47.4-4.8c-20.5 0-32.4 7.8-41.1 19.3-8.2 10.9-8.5 28.4-8.5 39.7v25.7H-337V396h26.5v133h49.6V396h39.3l2.9-38.3h-42.2v-29.9z"/></symbol><symbol id="icon-instagram" viewBox="-271 273 256 256"><path d="M-64.5 273h-157c-27.3 0-49.5 22.2-49.5 49.5v157.1c0 27.3 22.2 49.5 49.5 49.5h157c27.3 0 49.5-22.2 49.5-49.5V322.4c-.1-27.2-22.3-49.4-49.5-49.4zm14.2 29.5h5.7v43.4l-43.3.1-.1-43.4 37.7-.1zm-129.3 72.2c8.2-11.3 21.5-18.8 36.5-18.8s28.3 7.4 36.5 18.8c5.4 7.4 8.5 16.5 8.5 26.3 0 24.8-20.2 45.1-45.1 45.1s-44.9-20.3-44.9-45.1c0-9.8 3.2-18.9 8.5-26.3zM-40 479.5C-40 493-51 504-64.5 504h-157c-13.5 0-24.5-11-24.5-24.5V374.7h38.2c-3.3 8.1-5.2 17-5.2 26.3 0 38.6 31.4 70 70 70s70-31.4 70-70c0-9.3-1.9-18.2-5.2-26.3H-40v104.8z"/></symbol><symbol id="icon-twitter" viewBox="-271 296.6 256.4 208.4"><path d="M-14.6 321.2c-9.4 4.2-19.6 7-30.2 8.3 10.9-6.5 19.2-16.8 23.1-29.1-10.2 6-21.4 10.4-33.4 12.8-9.6-10.2-23.3-16.6-38.4-16.6-29 0-52.6 23.6-52.6 52.6 0 4.1.4 8.1 1.4 12-43.7-2.2-82.5-23.1-108.4-55-4.5 7.8-7.1 16.8-7.1 26.5 0 18.2 9.3 34.3 23.4 43.8-8.6-.3-16.7-2.7-23.8-6.6v.6c0 25.5 18.1 46.8 42.2 51.6-4.4 1.2-9.1 1.9-13.9 1.9-3.4 0-6.7-.3-9.9-.9 6.7 20.9 26.1 36.1 49.1 36.5-18 14.1-40.7 22.5-65.3 22.5-4.2 0-8.4-.2-12.6-.7 23.3 14.9 50.9 23.6 80.6 23.6 96.8 0 149.7-80.2 149.7-149.7 0-2.3 0-4.6-.1-6.8 10.3-7.5 19.2-16.7 26.2-27.3"/></symbol></svg>